<svg xmlns="http://www.w3.org/2000/svg" width="360" height="160" viewBox="0 0 360 160" fill="none">
  <rect width="360" height="160" rx="18" fill="#EEF2FF"/>
  <rect x="20" y="24" width="190" height="112" rx="12" fill="white" stroke="#C7D2FE"/>
  <rect x="34" y="42" width="84" height="8" rx="4" fill="#6366F1"/>
  <rect x="34" y="58" width="56" height="6" rx="3" fill="#A5B4FC"/>
  <rect x="34" y="74" width="124" height="6" rx="3" fill="#C7D2FE"/>
  <rect x="34" y="98" width="20" height="24" rx="4" fill="#93C5FD"/>
  <rect x="60" y="90" width="20" height="32" rx="4" fill="#60A5FA"/>
  <rect x="86" y="82" width="20" height="40" rx="4" fill="#3B82F6"/>
  <rect x="112" y="72" width="20" height="50" rx="4" fill="#2563EB"/>
  <circle cx="282" cy="57" r="36" fill="#DBEAFE"/>
  <path d="M275 49h14a6 6 0 1 1 0 12h-14a6 6 0 1 1 0-12z" fill="#1D4ED8"/>
  <path d="M282 42v30" stroke="#1D4ED8" stroke-width="4" stroke-linecap="round"/>
  <rect x="236" y="102" width="92" height="34" rx="10" fill="white" stroke="#BFDBFE"/>
  <path d="M252 120h60" stroke="#60A5FA" stroke-width="6" stroke-linecap="round"/>
</svg>
